<?xml version="1.0"?>
<svg xmlns="http://www.w3.org/2000/svg" xmlns:xlink="http://www.w3.org/1999/xlink" version="1.1" id="Capa_1" x="0px" y="0px" viewBox="0 0 485 485" style="enable-background:new 0 0 485 485;" xml:space="preserve" width="512px" height="512px" class=""><g><g>
	<rect x="151.084" y="285.474" width="30" height="64.737" data-original="#000000" class="" data-old_color="#000000" fill="#FFFFFF"/>
	<rect x="151.084" y="180.237" width="30" height="64.737" data-original="#000000" class="" data-old_color="#000000" fill="#FFFFFF"/>
	<rect x="230.089" y="285.474" width="30" height="64.737" data-original="#000000" class="" data-old_color="#000000" fill="#FFFFFF"/>
	<rect x="230.089" y="180.237" width="30" height="64.737" data-original="#000000" class="" data-old_color="#000000" fill="#FFFFFF"/>
	<path d="M72.08,0v485h340.84V0H72.08z M382.92,30v74.737h-43.827V75h-30v29.737h-49.004V75h-30v29.737h-49.005V75h-30v29.737   H102.08V30H382.92z M299.591,455v-64.289h-30V455h-49.004v-64.289h-30V455H102.08V134.737h280.84V455H299.591z" data-original="#000000" class="" data-old_color="#000000" fill="#FFFFFF"/>
	<rect x="309.093" y="285.474" width="30" height="64.737" data-original="#000000" class="" data-old_color="#000000" fill="#FFFFFF"/>
	<rect x="309.093" y="180.237" width="30" height="64.737" data-original="#000000" class="" data-old_color="#000000" fill="#FFFFFF"/>
</g></g> </svg>
