<?xml version="1.0" encoding="UTF-8"?>
<svg width="110px" height="90px" viewBox="0 0 110 90" version="1.1" xmlns="http://www.w3.org/2000/svg" xmlns:xlink="http://www.w3.org/1999/xlink">
    <!-- Generator: Sketch 63.1 (92452) - https://sketch.com -->
    <title>icon_dashboard</title>
    <desc>Created with Sketch.</desc>
    <defs>
        <rect id="path-1" x="0" y="0" width="110" height="90"></rect>
    </defs>
    <g id="icon_dashboard" stroke="none" stroke-width="1" fill="none" fill-rule="evenodd">
        <g id="Group-17">
            <mask id="mask-2" fill="white">
                <use xlink:href="#path-1"></use>
            </mask>
            <use id="Mask" fill="#D8D8D8" opacity="0" xlink:href="#path-1"></use>
            <path d="M42.835,41.2616616 C42.8575,41.2216726 42.895,41.201678 42.92,41.1641883 C43.025,41.0117302 43.145,40.874268 43.29,40.7418043 C43.4425,40.5943448 43.6025,40.4718785 43.7825,40.3694066 C43.8225,40.3469128 43.845,40.3094231 43.89,40.2919279 C43.9325,40.269434 43.9825,40.269434 44.0275,40.2494395 C44.2325,40.1619636 44.4375,40.0994807 44.6575,40.0694889 C45.8175,39.8370528 47.0575,40.2319443 47.6825,41.1591897 L59.8925,49.8543021 L75.335,35.7531742 C76.025,34.5610016 77.555,34.1511141 78.75,34.8409247 C79.945,35.528236 80.355,37.0603153 79.665,38.2524879 L62.165,54.2306003 C61.475,55.4277716 59.945,55.8326604 58.75,55.1478484 C58.5625,55.0378786 58.535,54.8154397 58.3875,54.6729788 C57.9625,54.4705344 57.5775,54.2081065 57.3175,53.8232122 L45.69,45.5429859 L34.665,58.7168684 C33.975,59.9215376 32.445,60.3339244 31.25,59.6391152 C30.0525,58.9443059 29.645,57.4047287 30.335,56.2000595 L42.835,41.2616616 Z M85,25.003626 L82.5275,25.003626 C82.5175,25.003626 82.51,24.9986274 82.5,24.9986274 L27.5,24.9986274 C27.49,24.9986274 27.4825,25.003626 27.4725,25.003626 L25,25.003626 L25,27.4954418 L25,27.4979411 L25,67.4844608 C25,68.864082 26.12,69.9837745 27.5,69.9837745 L82.5,69.9837745 C83.88,69.9837745 85,68.864082 85,67.4844608 L85,30.0022534 L85,30.0022534 L85,25.003626 Z M92.5,24.9986274 L90,24.9986274 L90,69.9837745 C90,72.7455162 87.7625,74.9824019 85,74.9824019 L63.4075,74.9824019 L69.6275,86.4367566 C70.395,87.5739443 69.94,89.0260455 68.61,89.683365 C67.2825,90.3356859 65.5825,89.9482923 64.8175,88.8136039 L57.8725,76.027115 C57.65,75.6972056 57.5575,75.3398038 57.5325,74.9824019 L52.4675,74.9824019 C52.4425,75.3398038 52.3525,75.6972056 52.1275,76.027115 L45.1825,88.8136039 C44.4175,89.9482923 42.7175,90.3356859 41.39,89.683365 C40.06,89.0260455 39.605,87.5739443 40.3725,86.4367566 L46.595,74.9824019 L25,74.9824019 C22.24,74.9824019 20,72.7455162 20,69.9837745 L20,24.9986274 L17.5,24.9986274 C16.12,24.9986274 15,23.8789348 15,22.4968144 C15,21.1171932 16.12,20 17.5,20 L25,20 L85,20 L92.5,20 C93.88,20 95,21.1171932 95,22.4968144 C95,23.8789348 93.88,24.9986274 92.5,24.9986274 L92.5,24.9986274 Z" id="Fill-1" fill="#337588" mask="url(#mask-2)"></path>
        </g>
    </g>
</svg>