<?xml version="1.0" encoding="UTF-8"?>
<svg width="110px" height="90px" viewBox="0 0 110 90" version="1.1" xmlns="http://www.w3.org/2000/svg" xmlns:xlink="http://www.w3.org/1999/xlink">
    <!-- Generator: Sketch 63.1 (92452) - https://sketch.com -->
    <title>icon_service</title>
    <desc>Created with Sketch.</desc>
    <defs>
        <rect id="path-1" x="0" y="0" width="110" height="90"></rect>
    </defs>
    <g id="icon_service" stroke="none" stroke-width="1" fill="none" fill-rule="evenodd">
        <mask id="mask-2" fill="white">
            <use xlink:href="#path-1"></use>
        </mask>
        <g id="Mask"></g>
        <path d="M51.1392292,34.0877543 C52.5207996,31.2960255 56.5150997,31.2960255 57.8966701,34.0877543 L57.8966701,34.0877543 L65.2464932,48.9341665 L81.681921,51.3164897 C84.704655,51.7533552 85.9506946,55.3838983 83.9139535,57.5761367 L83.9139535,57.5761367 L83.7699802,57.7233243 L71.8766577,69.279997 L74.6841015,85.5978931 C75.2039143,88.6041911 72.11466,90.9120805 69.3907316,89.6453123 L69.3907316,89.6453123 L69.2173983,89.5595723 L54.516588,81.8540257 L39.818221,89.559124 C37.1123423,90.9789375 33.9597854,88.7668455 34.3217202,85.7946087 L34.3217202,85.7946087 L34.3503481,85.599719 L37.1576529,69.279997 L25.2650854,57.7236168 C23.0776888,55.598507 24.209885,51.9307234 27.1498571,51.351285 L27.1498571,51.351285 L27.3530933,51.3166178 L43.7889522,48.9341665 Z M54.5177227,37.4868794 L47.6805188,51.2980252 C47.1320066,52.4088005 46.0692972,53.1782002 44.8430109,53.3544741 L44.8430109,53.3544741 L29.5516298,55.5701766 L40.6161284,66.3225061 C41.4445462,67.1271583 41.8528808,68.2632003 41.7339842,69.4027802 L41.7339842,69.4027802 L41.7003974,69.6469105 L39.0878104,84.8281257 L52.7656969,77.6606099 C53.7896757,77.1249882 54.9993275,77.0892801 56.0494674,77.5542211 L56.0494674,77.5542211 L56.27193,77.6615145 L69.9453656,84.829257 L67.3351383,69.6447914 C67.1405619,68.5074589 67.4803909,67.3481006 68.2482403,66.4998549 L68.2482403,66.4998549 L68.419292,66.3229713 L79.4826808,55.5701766 L64.1962292,53.3549557 C63.0428823,53.1895499 62.0374474,52.5029727 61.4650234,51.503982 L61.4650234,51.503982 L61.3563965,51.3000802 L54.5177227,37.4868794 Z M85.663225,36.8277946 C86.9958916,36.8277946 88.1826376,37.5820477 88.7629005,38.7753438 L88.7629005,38.7753438 L94.4298689,50.4606389 L107.048592,52.3293855 C108.336799,52.5207632 109.398144,53.4101065 109.819946,54.6484326 C110.240608,55.8980162 109.910007,57.2489173 108.976342,58.1832906 L108.976342,58.1832906 L99.7992959,67.2906161 L101.964167,80.1692073 C102.193308,81.4975934 101.644965,82.792207 100.55056,83.5689752 C99.9588967,83.9855031 99.2623532,84.1993958 98.5680897,84.1993958 C98.0094869,84.1993958 97.439484,84.0643057 96.9253415,83.7828679 L96.9253415,83.7828679 L85.6518249,77.7488427 L78.0023865,81.8465762 L77.1929825,77.1634521 L84.0204767,73.493504 C84.5334793,73.2233237 85.0932221,73.0882336 85.6518249,73.0882336 C86.2218278,73.0882336 86.7792906,73.2233237 87.2808931,73.493504 L87.2808931,73.493504 L97.1088824,78.7620185 L95.2153329,67.5157663 C95.032932,66.4125303 95.3988738,65.2867793 96.1843377,64.4987536 L96.1843377,64.4987536 L104.268118,56.4721492 L93.1644626,54.8285527 C92.6047198,54.7497502 92.0803171,54.5246 91.6368549,54.1981322 C91.1797126,53.8716644 90.8035107,53.4326215 90.5538495,52.9035185 L90.5538495,52.9035185 L88.0230368,47.6687765 L88.0104967,47.6687765 L85.6518249,42.7942748 L83.5998146,47.0383559 L78.8687909,46.3629054 L82.5384693,38.7753438 C83.1324123,37.5820477 84.3180182,36.8277946 85.6518249,36.8277946 L85.6518249,36.8277946 Z M24.348356,36.8277946 C25.6821342,36.8277946 26.8677148,37.5832278 27.4491053,38.7754837 L27.4491053,38.7754837 L31.131245,46.3635907 L26.4003224,47.0390898 L24.348356,42.7947036 L21.9771949,47.6706815 L19.4350365,52.9159323 C19.1842406,53.433815 18.8194466,53.8728894 18.363454,54.2117648 C17.9188613,54.5258719 17.3944699,54.7521641 16.8358791,54.8298465 L16.8358791,54.8298465 L5.73246086,56.4735611 L13.8149285,64.5018683 C14.6015156,65.2888248 14.9663097,66.4146567 14.7839127,67.517972 L14.7839127,67.517972 L12.8915436,78.7661584 L22.7067829,73.4961393 C23.7327661,72.9568659 24.9525462,72.9568659 25.9671295,73.4961393 L25.9671295,73.4961393 L32.8070175,77.1674771 L31.9976308,81.849812 L24.348356,77.7517839 L13.0739406,83.7873687 C11.9111597,84.4054504 10.5203825,84.3266421 9.44880001,83.5610765 C8.35441793,82.7966366 7.80722688,81.5008041 8.02382334,80.1734483 L8.02382334,80.1734483 L10.2011877,67.2928056 L1.02433795,58.1848256 C0.0895532521,57.2503851 -0.241041335,55.9005127 0.180751759,54.6497134 C0.591145039,53.4112984 1.66272749,52.523017 2.9509064,52.3304997 L2.9509064,52.3304997 L15.5704998,50.4627446 L21.236207,38.7754837 C21.8175975,37.5832278 23.0031781,36.8277946 24.348356,36.8277946 Z M79.1277962,22.1596019 C79.9765952,22.9249896 80.0825463,24.208941 79.3978151,25.1008523 L79.2891693,25.2315849 L70.6049588,34.8992586 C69.8028438,35.7922109 68.4301093,35.864599 67.5388704,35.0609419 C66.6900715,34.2955543 66.5841204,33.0116028 67.2688516,32.1196915 L67.3774974,31.9889589 L76.0617079,22.3212852 C76.8638229,21.4283329 78.2365574,21.3559448 79.1277962,22.1596019 Z M29.9072915,22.1596019 C30.7985303,21.3559448 32.1712649,21.4283329 32.9733798,22.3212852 L32.9733798,22.3212852 L41.6575904,31.9889589 L41.7662361,32.1196915 C42.4509673,33.0116028 42.3450162,34.2955543 41.4962173,35.0609419 C40.6049784,35.864599 39.2322439,35.7922109 38.4301289,34.8992586 L38.4301289,34.8992586 L29.7459184,25.2315849 L29.6372726,25.1008523 C28.9525414,24.208941 29.0584926,22.9249896 29.9072915,22.1596019 Z M54.5175439,10 C55.6666232,10 56.6072012,10.894416 56.6835878,12.0262972 L56.6885965,12.1752266 L56.6885965,24.7432024 C56.6885965,25.9445469 55.7165831,26.918429 54.5175439,26.918429 C53.3684646,26.918429 52.4278865,26.024013 52.3514999,24.8921318 L52.3464912,24.7432024 L52.3464912,12.1752266 C52.3464912,10.9738821 53.3185046,10 54.5175439,10 Z" id="Combined-Shape" fill="#337588" fill-rule="nonzero" mask="url(#mask-2)"></path>
    </g>
</svg>