<?xml version="1.0" encoding="UTF-8"?>
<svg width="110px" height="90px" viewBox="0 0 110 90" version="1.1" xmlns="http://www.w3.org/2000/svg" xmlns:xlink="http://www.w3.org/1999/xlink">
    <!-- Generator: Sketch 63.1 (92452) - https://sketch.com -->
    <title>icon_x2</title>
    <desc>Created with Sketch.</desc>
    <g id="icon_x2" stroke="none" stroke-width="1" fill="none" fill-rule="evenodd">
        <g id="Group-24">
            <rect id="Rectangle" fill="#D8D8D8" opacity="0" x="0" y="0" width="110" height="90"></rect>
            <g id="Group-7" transform="translate(31.000000, 0.000000)" fill="#337588">
                <path d="M33.470475,16.1375714 L43.670475,5.85185714 C44.4479101,5.06788894 45.7136776,5.06259284 46.4976458,5.84002798 C46.5016054,5.84395452 46.5055485,5.84789761 46.509475,5.85185714 C47.2953365,6.64432254 47.2952781,7.92219095 46.5093441,8.7145845 L36.30735,19.0004286 L36.30735,19.0004286 C35.901475,18.4604286 35.514725,17.9118571 35.025975,17.419 C34.541475,16.9282857 33.9996,16.5425714 33.470475,16.1375714 Z" id="Fill-1"></path>
                <path d="M24.3914333,0.405857143 C25.6788091,0.405857143 26.7224333,1.44948139 26.7224333,2.73685714 L26.7224333,13.5244286 L26.7224333,13.5244286 C25.1754333,13.3165714 23.6097667,13.3165714 22.0604333,13.518 L22.0604333,2.73685714 C22.0604333,1.44948139 23.1040576,0.405857143 24.3914333,0.405857143 Z" id="Fill-4"></path>
                <path d="M11.7105,18.9918571 L1.43134525,8.7145833 C0.640789091,7.9241718 0.640671823,6.64254428 1.43108333,5.85198811 C1.43112698,5.85194445 1.43117063,5.8519008 1.43121429,5.85185714 C2.22179164,5.06127979 3.50355271,5.06122115 4.2942024,5.85172616 L14.5733571,16.129 L14.5733571,16.129 C14.0355,16.5382857 13.4869286,16.9261429 12.9962143,17.419 C12.5055,17.9075714 12.1176429,18.454 11.7105,18.9918571 Z" id="Fill-7"></path>
            </g>
            <path d="M81.156349,45.9678011 L54.9668695,24.9873513 L28.7752032,45.9678011 L28.7752032,83.439138 C28.7752032,84.6440814 29.7505295,85.6259682 30.9576598,85.6259682 L50.5997694,85.6259682 L72.4243357,85.6259682 L78.9738924,85.6259682 C80.1788359,85.6259682 81.156349,84.6440814 81.156349,83.439138 L81.156349,45.9678011 Z M53.3267468,20.6268117 C53.7794207,20.171951 54.3720517,19.9816968 54.9668695,20.0013783 C55.5573137,19.9816968 56.1521315,20.171951 56.6048054,20.6268117 L89.2804235,46.8053571 C90.1485951,47.6779023 90.1485951,49.086221 89.2804235,49.9565795 C88.410065,50.8269379 87.0017463,50.8269379 86.1335747,49.9565795 L85.5212622,49.4645427 L85.5212622,85.6259682 C85.5212622,88.0402289 83.5684228,89.9996288 81.156349,89.9996288 L72.4243357,89.9996288 L50.5997694,89.9996288 L28.7752032,89.9996288 C26.3631294,89.9996288 24.41029,88.0402289 24.41029,85.6259682 L24.41029,49.4645427 L23.7979775,49.9565795 C22.927619,50.8269379 21.5193003,50.8269379 20.6511287,49.9565795 C19.7829571,49.086221 19.7829571,47.6779023 20.6511287,46.8053571 L53.3267468,20.6268117 Z" id="Page-1" fill="#337588"></path>
            <path d="M52.802,74.168 C54.034,74.168 54.93,73.244 54.93,72.04 C54.93,71.424 54.622,70.864 54.286,70.444 L49.022,63.976 L54.006,57.872 C54.426,57.34 54.65,56.836 54.65,56.22 C54.65,54.988 53.642,54.232 52.69,54.232 C51.738,54.232 51.178,54.652 50.59,55.408 L46.334,61.008 L42.05,55.296 C41.518,54.596 40.986,54.232 40.062,54.232 C38.83,54.232 37.934,55.156 37.934,56.36 C37.934,56.976 38.242,57.536 38.578,57.956 L43.562,64.032 L38.27,70.528 C37.85,71.06 37.626,71.564 37.626,72.18 C37.626,73.412 38.634,74.168 39.586,74.168 C40.538,74.168 41.098,73.748 41.686,72.992 L46.222,67.084 L50.814,73.104 C51.346,73.804 51.878,74.168 52.802,74.168 Z M70.386,74 C71.422,74 72.262,73.188 72.262,72.152 C72.262,71.116 71.422,70.276 70.386,70.276 L63.554,70.276 L66.746,67.812 C70.218,65.124 71.898,63.5 71.898,60.224 L71.898,60.168 C71.898,56.5 69.21,54.12 65.15,54.12 C62.182,54.12 60.334,55.184 58.766,57.004 C58.458,57.368 58.262,57.872 58.262,58.348 C58.262,59.44 59.13,60.308 60.222,60.308 C60.894,60.308 61.398,60 61.678,59.692 C62.77,58.516 63.638,57.984 64.87,57.984 C66.41,57.984 67.502,58.88 67.502,60.532 C67.502,62.156 66.55,63.248 64.114,65.236 L58.542,69.8 C57.814,70.388 57.422,71.116 57.422,71.956 C57.422,73.244 58.402,74 59.746,74 L70.386,74 Z" id="X2" fill="#337588" fill-rule="nonzero"></path>
        </g>
    </g>
</svg>