<svg id="Capa_1" enable-background="new 0 0 512 512" height="512" viewBox="0 0 512 512" width="512" xmlns="http://www.w3.org/2000/svg"><g><path id="XMLID_1499_" d="m497.055 322.067-24.311-171.995c-3.753-25.875-26.409-45.386-52.7-45.386h-77.018c-63.867 0-125.445 18.98-178.077 54.888-52.652 35.922-92.575 86.207-115.449 145.419-.111.287-.213.577-.306.87l-5.139 16.202h-10.339c-6.43 0-12.144 4.098-14.207 10.188l-18.716 55.25c-1.551 4.579-.8 9.625 2.017 13.554s7.355 6.259 12.19 6.259h482c8.284 0 15-6.716 15-15v-55.25c0-8.267-6.687-14.969-14.945-14.999zm-419.407-6.688c20.7-53.332 56.726-98.629 104.208-131.024 47.628-32.494 103.359-49.67 161.17-49.67h77.018c11.49 0 21.383 8.466 23.003 19.639l23.709 167.74h-391.228zm404.352 61.935h-446.081l8.553-25.25h10.463c.034 0 .069.004.103.004.033 0 .065-.004.098-.004h426.864z"/><ellipse id="XMLID_1498_" cx="428.393" cy="286.467" rx="15.119" ry="15"/><ellipse id="XMLID_1492_" cx="372.951" cy="286.467" rx="15.119" ry="15"/><path id="XMLID_1471_" d="m417.441 182.282c0-15.275-12.473-27.702-27.803-27.702h-82.684c-29.041 0-82.727 9.343-115.988 71.916-2.472 4.649-2.324 10.254.388 14.767s7.592 7.274 12.857 7.274h198.23c8.284 0 15-6.716 15-15zm-30 36.254h-155.128c7.621-8.92 16.322-16.159 26.027-21.635 14.489-8.176 30.846-12.322 48.614-12.322h80.486v33.957z"/></g></svg>