<svg xmlns="http://www.w3.org/2000/svg" width="40.833" height="45.058" viewBox="0 0 40.833 45.058">
  <g id="Group_796" data-name="Group 796" transform="translate(-24.001)">
    <path id="Path_6175" data-name="Path 6175" d="M31.041,368H25.409a1.408,1.408,0,1,0,0,2.816h4.224v2.112H25.409A1.408,1.408,0,0,0,24,374.336v4.928a1.408,1.408,0,0,0,1.408,1.408h5.632a1.408,1.408,0,0,0,0-2.816H26.817v-2.112h4.224a1.408,1.408,0,0,0,1.408-1.408v-4.928A1.408,1.408,0,0,0,31.041,368Z" transform="translate(0 -335.615)" fill="#f60000"/>
    <path id="Path_6176" data-name="Path 6176" d="M159.041,368a1.408,1.408,0,0,0-1.408,1.408v3.52h-2.816v-3.52a1.408,1.408,0,1,0-2.816,0v4.928a1.408,1.408,0,0,0,1.408,1.408h4.224v3.52a1.408,1.408,0,0,0,2.816,0v-9.856A1.408,1.408,0,0,0,159.041,368Z" transform="translate(-116.736 -335.615)" fill="#f60000"/>
    <path id="Path_6177" data-name="Path 6177" d="M279.738,368.183a1.408,1.408,0,0,0-1.921.524l-5.632,9.856a1.408,1.408,0,1,0,2.445,1.4l5.632-9.856A1.408,1.408,0,0,0,279.738,368.183Z" transform="translate(-226.173 -335.613)" fill="#f60000"/>
    <path id="Path_6178" data-name="Path 6178" d="M399.041,368h-5.632a1.408,1.408,0,1,0,0,2.816h4.224v8.448a1.408,1.408,0,1,0,2.816,0v-9.856A1.408,1.408,0,0,0,399.041,368Z" transform="translate(-335.615 -335.615)" fill="#f60000"/>
    <path id="Path_6179" data-name="Path 6179" d="M103.106,23.938c1.245-2.4,1.281-7.205,1.281-7.745a16.193,16.193,0,1,0-32.385,0c0,.535.036,5.265,1.253,7.688.254.588,2.261,4.886,6.964,5.67a1.408,1.408,0,0,0,.463-2.778,5.637,5.637,0,0,1-2.162-.851A6.387,6.387,0,0,0,81.5,24.286a5.943,5.943,0,0,0,1.714-4.527,4.8,4.8,0,0,0-1.853-3.56c-.533-.408-1.613-.984-4.831-1.268-.594-.052-1.161-.086-1.645-.108a13.377,13.377,0,0,1,26.614,0c-.484.022-1.051.055-1.645.108-3.218.284-4.3.86-4.831,1.268a4.8,4.8,0,0,0-1.853,3.56,5.944,5.944,0,0,0,1.714,4.527,6.434,6.434,0,0,0,4.4,1.811,5.165,5.165,0,0,0,.79-.059,3.982,3.982,0,0,0,3.027-2.1Z" transform="translate(-43.777 0)" fill="#f60000"/>
  </g>
</svg>
