<svg height="512" viewBox="0 0 512 512" width="512" xmlns="http://www.w3.org/2000/svg"><path d="m464 56h8a8 8 0 0 0 8-8v-32a8 8 0 0 0 -8-8h-432a8 8 0 0 0 -8 8v32a8 8 0 0 0 8 8h8v400h-8a8 8 0 0 0 -8 8v32a8 8 0 0 0 8 8h432a8 8 0 0 0 8-8v-32a8 8 0 0 0 -8-8h-8zm0 432h-416v-16h416zm-58.32-137.1c5.94-18.8 15.97-38.9 26.32-38.9h16v144h-56c0-39.84 4.86-77.16 13.68-105.1zm-15.26-4.82c-9.3 29.46-14.42 68.49-14.42 109.92h-55.9c.96-38.53 8.85-74.35 22.47-101.59 13.68-27.35 31.23-42.41 49.43-42.41h14.27c-5.98 8.27-11.3 19.69-15.85 34.08zm9.58-50.08v-16h48v16zm32-32c-11.74 0-34.14-8.65-52.26-66.59-11.94-38.15-19.02-89.29-19.68-141.41h87.94v208zm-67.53-61.81c8.76 28.01 19.77 48.73 32.61 61.73-28.71-1.57-57.92-26.13-80.58-67.93-21.65-39.97-35.03-91.73-36.38-139.99h63.94c.66 53.69 8.01 106.57 20.41 146.19zm-62.03 1.42c22.73 41.95 51.23 67.84 81.56 74.6v18.46c-44.09 7.26-77.9 74.07-79.9 159.33h-96.2c-2-85.26-35.81-152.07-79.9-159.33v-18.46c30.33-6.76 58.83-32.65 81.56-74.6 22.87-42.19 36.97-96.8 38.32-147.61h16.24c1.35 50.81 15.45 105.42 38.32 147.61zm-110.54 252.39h-55.9c0-41.43-5.12-80.46-14.42-109.92-4.55-14.39-9.87-25.81-15.85-34.08h14.27c18.2 0 35.75 15.06 49.43 42.41 13.62 27.24 21.51 63.06 22.47 101.59zm3.6-260.01c-22.66 41.8-51.87 66.36-80.58 67.93 12.84-13 23.85-33.72 32.61-61.73 12.4-39.62 19.75-92.5 20.41-146.19h63.94c-1.35 48.26-14.73 100.02-36.38 139.99zm-63.24 1.42c-18.12 57.94-40.52 66.59-52.26 66.59h-16v-208h87.94c-.66 52.12-7.74 103.26-19.68 141.41zm-20.26 82.59v16h-48v-16zm-32 32c10.35 0 20.38 20.1 26.32 38.9 8.82 27.94 13.68 65.26 13.68 105.1h-56v-144zm-32-272v-16h416v16z"/></svg>