<?xml version="1.0"?>
<svg xmlns="http://www.w3.org/2000/svg" xmlns:xlink="http://www.w3.org/1999/xlink" version="1.1" id="Capa_1" x="0px" y="0px" viewBox="0 0 512 512" style="enable-background:new 0 0 512 512;" xml:space="preserve" width="512px" height="512px"><g><g>
	<g>
		<path d="M492,236H144.262c-11.046,0-20,8.954-20,20s8.954,20,20,20H492c11.046,0,20-8.954,20-20C512,244.954,503.046,236,492,236z    " data-original="#000000" class="active-path" data-old_color="#000000" fill="#FFFFFF"/>
	</g>
</g><g>
	<g>
		<path d="M492,86H144.262c-11.046,0-20,8.954-20,20s8.954,20,20,20H492c11.046,0,20-8.954,20-20S503.046,86,492,86z" data-original="#000000" class="active-path" data-old_color="#000000" fill="#FFFFFF"/>
	</g>
</g><g>
	<g>
		<path d="M492,386H144.262c-11.046,0-20,8.954-20,20c0,11.046,8.954,20,20,20H492c11.046,0,20-8.954,20-20    C512,394.954,503.046,386,492,386z" data-original="#000000" class="active-path" data-old_color="#000000" fill="#FFFFFF"/>
	</g>
</g><g>
	<g>
		<circle cx="27" cy="106" r="27" data-original="#000000" class="active-path" data-old_color="#000000" fill="#FFFFFF"/>
	</g>
</g><g>
	<g>
		<circle cx="27" cy="256" r="27" data-original="#000000" class="active-path" data-old_color="#000000" fill="#FFFFFF"/>
	</g>
</g><g>
	<g>
		<circle cx="27" cy="406" r="27" data-original="#000000" class="active-path" data-old_color="#000000" fill="#FFFFFF"/>
	</g>
</g></g> </svg>
