<svg id="Layer_1" enable-background="new 0 0 512 512" height="512" viewBox="0 0 512 512" width="512" xmlns="http://www.w3.org/2000/svg"><g><path d="m497 0h-482c-8.284 0-15 6.716-15 15v482c0 8.284 6.716 15 15 15h482c8.284 0 15-6.716 15-15v-482c0-8.284-6.716-15-15-15zm-15 482h-452v-323.467h34.267v274.2c0 8.284 6.716 15 15 15h353.467c8.284 0 15-6.716 15-15v-274.2h34.266zm-387.733-64.267v-259.2h323.467v259.2zm387.733-289.2h-452v-98.533h452z"/><circle cx="111.4" cy="79.267" r="15"/><circle cx="304.2" cy="79.267" r="15"/><circle cx="207.8" cy="79.267" r="15"/><circle cx="400.6" cy="79.267" r="15"/><path d="m368.467 192.8h-224.934c-8.284 0-15 6.716-15 15s6.716 15 15 15h224.934c8.284 0 15-6.716 15-15s-6.716-15-15-15z"/></g></svg>