<svg id="Layer_1" enable-background="new 0 0 512.002 512.002" height="512" viewBox="0 0 512.002 512.002" width="512" xmlns="http://www.w3.org/2000/svg"><g><g><path d="m502.001 452.002h-11.001v-.001-100.667c12.201-4.171 21.002-15.742 21.002-29.338 0-17.094-13.907-31.001-31.002-31.001-13.596 0-25.167 8.801-29.337 21.001h-10.663v-301.996c0-5.522-4.477-10-10-10h-349.998c-5.523 0-10 4.478-10 10v301.996h-10.662c-4.171-12.2-15.742-21.001-29.337-21.001-17.095.001-31.003 13.908-31.003 31.002 0 13.596 8.801 25.167 21.001 29.337v100.667.001h-11.001c-5.523 0-10 4.478-10 10v39.999c0 5.522 4.477 10 10 10h200.998c5.523 0 10-4.478 10-10s-4.477-10-10-10h-190.998v-19.999h472.001v19.999h-191.003c-5.523 0-10 4.478-10 10s4.477 10 10 10h201.004c5.523 0 10-4.478 10-10v-39.999c-.001-5.522-4.478-10-10.001-10zm-410.999-120.005h30v.003 120.002.001h-30v-.001-120.002c0-.001 0-.002 0-.003zm249.998-209.996c0 16.542-13.458 30-30 30s-30-13.458-30-30v-20c0-16.542 13.458-30 30-30 16.542 0 30 13.458 30 30zm-61.346 38.914c8.582 6.927 19.485 11.086 31.347 11.086 11.861 0 22.764-4.159 31.345-11.085 17.797 10.931 28.654 30.051 28.654 51.084v99.996h-90v-9.998c0-27.123-13.512-51.85-35.822-66.617 3.71-6.982 5.822-14.938 5.822-23.381.001-21.04 10.855-40.154 28.654-51.085zm-48.653 51.085c0 16.542-13.458 29.999-30 29.999s-30-13.457-30-29.999v-20c0-16.542 13.458-30 30-30s30 13.458 30 30zm-61.347 38.914c8.582 6.926 19.485 11.086 31.347 11.086 11.861 0 22.764-4.159 31.345-11.085 17.798 10.931 28.655 30.051 28.655 51.084v9.998h-120v-9.998c0-21.04 10.855-40.155 28.653-51.085zm-28.653 81.083h30v.003 120.002.001h-30v-.001-120.002c0-.001 0-.002 0-.003zm50 0h30v.003 120.002.001h-30v-.001-120.002c0-.001 0-.002 0-.003zm50 0h30v.003 120.002.001h-30v-.001-120.002c0-.001 0-.002 0-.003zm50 0h30v.003 120.002.001h-30v-.001-120.002c0-.001 0-.002 0-.003zm49.999 0h30v.003 120.002.001h-30v-.001-120.002c0-.001 0-.002 0-.003zm50 0h30v.003 120.002.001h-30v-.001-120.002c0-.001 0-.002 0-.003zm50 0h10.662c3.097 9.061 10.276 16.24 19.338 19.338v100.667.001h-30v-.001-120.002c0-.001 0-.002 0-.003zm40-21.001c6.066 0 11.002 4.935 11.002 11.001s-4.936 11.002-11.002 11.002-11.002-4.936-11.002-11.002 4.936-11.001 11.002-11.001zm-389.998-290.996h329.998v291.996h-30v-99.996c0-27.124-13.512-51.85-35.823-66.617 3.71-6.982 5.822-14.938 5.822-23.382v-20c0-27.57-22.43-50-50-50s-50 22.43-50 50v20c0 8.443 2.111 16.399 5.822 23.381-8.944 5.919-16.479 13.432-22.289 22.067-8.592-15.177-24.88-25.449-43.531-25.449-27.57 0-50 22.43-50 50v20c0 8.442 2.111 16.398 5.822 23.38-22.312 14.765-35.821 39.485-35.821 66.618v9.998h-30zm-60 290.996c6.066 0 11.002 4.935 11.002 11.001s-4.936 11.002-11.002 11.002-11.002-4.936-11.002-11.002 4.936-11.001 11.002-11.001zm10 141.005v-100.667c9.061-3.097 16.241-10.276 19.338-19.338h10.662v.003 120.002.001l-30-.001c0 .001 0 .001 0 0z"/><path d="m256.001 492.001h-.007c-5.523 0-9.996 4.478-9.996 10s4.48 10 10.003 10 10-4.478 10-10-4.477-10-10-10z"/></g></g></svg>