<svg id="Capa_1" enable-background="new 0 0 512 512" height="512" viewBox="0 0 512 512" width="512" xmlns="http://www.w3.org/2000/svg"><g><path d="m248.5 225.323v-15h-158.501c-4.135 0-7.5-3.364-7.5-7.5v-30.001c0-4.135 3.364-7.499 7.5-7.499h37.5v-15h-37.5c-12.406 0-22.5 10.093-22.5 22.499v30.001c0 12.406 10.093 22.5 22.5 22.5z"/><path d="m422.001 150.323h-279.502v15h279.502c4.136 0 7.5 3.364 7.5 7.499v30.001c0 4.136-3.364 7.5-7.5 7.5h-158.501v15h158.501c12.406 0 22.5-10.094 22.5-22.5v-30.001c0-12.406-10.094-22.499-22.5-22.499z"/><path d="m384.501 241.963h15v15h-15z"/><path d="m362.377 281.195v15c14.261 0 27.446-8.404 33.593-21.41l-13.563-6.408c-3.68 7.787-11.542 12.818-20.03 12.818z"/><path d="m185.561 326.195h140.878l18.749 75.731 14.561-3.605-17.856-72.126h16.472l17.042 68.832 14.561-3.605-16.385-66.18c31.695-5.351 55.92-32.977 55.92-66.171v-18.749h-15v18.749c0 28.741-23.383 52.124-52.124 52.124h-212.756c-28.741 0-52.124-23.383-52.124-52.124v-18.749h-15v18.749c0 33.194 24.225 60.82 55.92 66.171l-46.237 186.758h47.378l7.427-30h172.082v-15h-183.821l-7.427 30h-16.473l42.287-170.805h16.472l-31.145 125.805h180.107v-15h-160.941z"/><path d="m384.005 407c-28.948 0-52.5 23.552-52.5 52.5s23.552 52.5 52.5 52.5 52.5-23.552 52.5-52.5-23.552-52.5-52.5-52.5zm0 90c-20.678 0-37.5-16.822-37.5-37.5s16.822-37.5 37.5-37.5 37.5 16.822 37.5 37.5-16.823 37.5-37.5 37.5z"/><path d="m384.005 437c-12.406 0-22.5 10.094-22.5 22.5s10.094 22.5 22.5 22.5 22.5-10.094 22.5-22.5-10.094-22.5-22.5-22.5zm0 30c-4.136 0-7.5-3.364-7.5-7.5s3.364-7.5 7.5-7.5 7.5 3.364 7.5 7.5-3.365 7.5-7.5 7.5z"/><path d="m106.628 135.323h45v-22.5h15.948c3.339 12.925 15.097 22.5 29.051 22.5 7.842 0 14.988-3.028 20.338-7.972 4.13 4.872 10.289 7.972 17.161 7.972h15.001c12.406 0 22.499-10.094 22.499-22.5h16.354c4.835 13.079 22.113 22.5 43.27 22.5s38.436-9.421 43.271-22.5h62.479v-15h-62.479c-4.835-13.079-22.114-22.5-43.271-22.5s-38.435 9.421-43.27 22.5h-16.354c0-12.406-10.093-22.5-22.499-22.5h-15.001c-6.872 0-13.031 3.101-17.161 7.972-5.351-4.944-12.496-7.972-20.338-7.972-13.953 0-25.712 9.575-29.051 22.5h-15.948v-22.5h-45v22.5h-31.629v15h31.629zm224.623-45c16.956 0 29.625 7.919 29.625 15s-12.669 15-29.625 15c-16.955 0-29.624-7.919-29.624-15s12.669-15 29.624-15zm-104.624 7.5c0-4.136 3.364-7.5 7.5-7.5h15.001c4.135 0 7.499 3.364 7.499 7.5v15c0 4.136-3.364 7.5-7.499 7.5h-15.001c-4.135 0-7.5-3.364-7.5-7.5zm-30-7.5c8.271 0 15 6.729 15 15s-6.729 15-15 15-15-6.729-15-15 6.729-15 15-15zm-74.999 0h15v30h-15z"/><path d="m248.751 30h15v22.501h-15z"/><path d="m203.752 0h15v15h-15z"/><path d="m293.751 0h15v15h-15z"/><path d="m248.751 0h15v15h-15z"/><path d="m293.751 30h15v22.501h-15z"/><path d="m203.752 30h15v22.501h-15z"/><path d="m158.753 30h15v22.501h-15z"/><path d="m158.753 0h15v15h-15z"/><path d="m347.001 180.323h15v15h-15z"/><path d="m377.001 180.323h37.5v15h-37.5z"/><path d="m112.499 240.322h15v15h-15z"/><path d="m263.5 260.759h15v15h-15z"/><path d="m233.5 260.759h15v15h-15z"/></g></svg>