<?xml version="1.0"?>
<svg xmlns="http://www.w3.org/2000/svg" xmlns:xlink="http://www.w3.org/1999/xlink" version="1.1" id="Capa_1" x="0px" y="0px" viewBox="0 0 512 512" style="enable-background:new 0 0 512 512;" xml:space="preserve" width="512px" height="512px"><g><g>
	<g>
		<path d="M226.79,89.729c-11.525-57.179-67.413-94.328-124.592-82.8C74.536,12.503,50.68,28.545,35.026,52.101    c-15.654,23.555-21.205,51.76-15.631,79.418c5.574,27.663,21.615,51.519,45.169,67.172c17.585,11.687,37.759,17.742,58.368,17.742    c6.995,0.001,14.045-0.698,21.055-2.11C201.155,202.801,238.3,146.911,226.79,89.729z M125.943,124.744    c-7.789,1.565-15.4-3.489-16.968-11.272c-1.568-7.783,3.49-15.393,11.275-16.966c7.788-1.565,15.39,3.495,16.961,11.27    C138.777,115.565,133.722,123.177,125.943,124.744z" data-original="#000000" class="active-path" data-old_color="#000000" fill="#FFFFFF"/>
	</g>
</g><g>
	<g>
		<path d="M492.605,380.479c-5.574-27.663-21.615-51.519-45.169-67.172c-23.554-15.653-51.761-21.204-79.423-15.631    c-57.167,11.522-94.312,67.412-82.802,124.593c10.109,50.158,54.354,84.897,103.662,84.897c6.903,0,13.909-0.681,20.93-2.097    c27.662-5.574,51.518-21.616,67.172-45.172C492.627,436.341,498.178,408.136,492.605,380.479z M391.755,415.49    c-7.781,1.573-15.394-3.492-16.966-11.269c-1.568-7.789,3.488-15.4,11.271-16.968c7.79-1.567,15.398,3.49,16.965,11.273    C404.592,406.309,399.533,413.921,391.755,415.49z" data-original="#000000" class="active-path" data-old_color="#000000" fill="#FFFFFF"/>
	</g>
</g><g>
	<g>
		<path d="M421.056,7.655c-10.166-6.756-22.353-9.153-34.317-6.74c-11.964,2.41-22.274,9.335-29.031,19.502L78.179,441.012    c-13.934,20.986-8.207,49.397,12.764,63.331C98.53,509.386,107.24,512,116.142,512c3.032,0,6.086-0.303,9.125-0.916    c11.964-2.414,22.272-9.34,29.026-19.501L433.82,70.987C447.754,50.001,442.028,21.589,421.056,7.655z" data-original="#000000" class="active-path" data-old_color="#000000" fill="#FFFFFF"/>
	</g>
</g></g> </svg>
